<mxfile host="app.diagrams.net" modified="2023-10-15T07:03:24.487Z" agent="Mozilla/5.0 (Windows NT 10.0; Win64; x64) AppleWebKit/537.36 (KHTML, like Gecko) Chrome/117.0.0.0 Safari/537.36" version="22.0.0" etag="GIDvZM9rAQK_4afO2oUx" type="github">
  <diagram name="第 1 页" id="liG3LF9DfftNIO6hckej">
    <mxGraphModel>
      <root>
        <mxCell id="0" />
        <mxCell id="1" parent="0" />
      </root>
    </mxGraphModel>
  </diagram>
</mxfile>
